<svg viewBox="0 0 24 24" fill="#3c3c3c" xmlns="http://www.w3.org/2000/svg"><path fill-rule="evenodd" clip-rule="evenodd" d="M2.541 8.715a.49.49 0 0 0-.44.35l-.08.25a.49.49 0 0 0 .18.54l4.816 4.136-1.439 6.244a.51.51 0 0 0 .19.53l.22.15a.5.5 0 0 0 .56 0l5.464-3.328 5.435 3.297a.5.5 0 0 0 .56 0l.289-.16a.51.51 0 0 0 .19-.529l-1.479-6.204 4.815-4.137a.49.49 0 0 0 .15-.54l-.08-.249a.49.49 0 0 0-.44-.35l-6.383-.51-2.458-5.884a.49.49 0 0 0-.47-.32h-.259a.51.51 0 0 0-.51.32L8.926 8.206l-6.384.51Zm9.454-2.681-1.693 4.068-4.34.346 3.275 2.813-.984 4.274 3.757-2.288 3.788 2.298-1.02-4.277 3.28-2.817-4.364-.349-1.7-4.068Z" fill="#3c3c3c" /></svg>