<svg width="15" height="16" viewBox="0 0 15 16" fill="none" xmlns="http://www.w3.org/2000/svg">
<path fill-rule="evenodd" clip-rule="evenodd" d="M1.4998 0.800049C0.837063 0.800049 0.299805 1.33731 0.299805 2.00005V14C0.299805 14.6628 0.837063 15.2 1.4998 15.2H13.4998C14.1625 15.2 14.6998 14.6628 14.6998 14V2.00005C14.6998 1.33731 14.1625 0.800049 13.4998 0.800049H1.4998ZM5.4998 3.60005C6.3798 3.60005 7.0998 4.32005 7.0998 5.20005C7.0998 6.08005 6.3798 6.80005 5.4998 6.80005C4.6198 6.80005 3.8998 6.08005 3.8998 5.20005C3.8998 4.32005 4.6198 3.60005 5.4998 3.60005ZM12.699 13.6H2.2974C1.9694 13.6 1.7854 13.232 1.9774 12.968L4.8198 9.72725C4.9718 9.55925 5.2358 9.55925 5.3958 9.71925L6.6998 11.2L9.1478 7.37525C9.3158 7.13525 9.6678 7.14325 9.8198 7.39125L13.051 13C13.195 13.272 13.003 13.6 12.699 13.6Z" fill="#5C5F62"/>
</svg>
