<svg width="17" height="16" viewBox="0 0 17 16" fill="none" xmlns="http://www.w3.org/2000/svg">
<path d="M5.29961 3.2C5.29961 1.43269 6.7323 0 8.49961 0C10.2669 0 11.6996 1.43269 11.6996 3.2V6.4C11.6996 8.16731 10.2669 9.6 8.49961 9.6C6.7323 9.6 5.29961 8.16731 5.29961 6.4V3.2Z" fill="#5C5F62"/>
<path fill-rule="evenodd" clip-rule="evenodd" d="M9.29961 12V15.2H7.69961V12H9.29961Z" fill="#5C5F62"/>
<path fill-rule="evenodd" clip-rule="evenodd" d="M3.69961 6.4C3.69961 9.05097 5.84864 11.2 8.49961 11.2C11.1506 11.2 13.2996 9.05097 13.2996 6.4H14.8996C14.8996 9.93462 12.0342 12.8 8.49961 12.8C4.96499 12.8 2.09961 9.93462 2.09961 6.4H3.69961Z" fill="#5C5F62"/>
<path d="M13.2996 4.8H13.6996C14.3624 4.8 14.8996 5.33726 14.8996 6V6.4H13.2996V4.8Z" fill="#5C5F62"/>
<path d="M2.09961 6C2.09961 5.33726 2.63687 4.8 3.29961 4.8H3.69961V6.4H2.09961V6Z" fill="#5C5F62"/>
<path d="M6.09961 15.6C6.09961 14.9373 6.63687 14.4 7.29961 14.4H9.69961C10.3624 14.4 10.8996 14.9373 10.8996 15.6V16H6.09961V15.6Z" fill="#5C5F62"/>
</svg>
