<svg width="5" height="17" viewBox="0 0 5 17" fill="none" xmlns="http://www.w3.org/2000/svg">
<path fill-rule="evenodd" clip-rule="evenodd" d="M2.57227 12.8516C3.67627 12.8516 4.57227 13.7476 4.57227 14.8516C4.57227 15.9556 3.67627 16.8516 2.57227 16.8516C1.46827 16.8516 0.572266 15.9556 0.572266 14.8516C0.572265 13.7476 1.46827 12.8516 2.57227 12.8516ZM2.57227 6.85156C3.67627 6.85156 4.57227 7.74756 4.57227 8.85156C4.57227 9.95556 3.67627 10.8516 2.57227 10.8516C1.46827 10.8516 0.572265 9.95556 0.572265 8.85156C0.572265 7.74756 1.46827 6.85156 2.57227 6.85156ZM2.57226 0.851562C3.67627 0.851562 4.57226 1.74756 4.57227 2.85156C4.57227 3.95556 3.67627 4.85156 2.57227 4.85156C1.46827 4.85156 0.572265 3.95556 0.572265 2.85156C0.572265 1.74756 1.46826 0.851562 2.57226 0.851562Z" fill="#404040"/>
</svg>
